<svg id="Layer_1" data-name="Layer 1" xmlns="http://www.w3.org/2000/svg" viewBox="0 0 941.92 182.86"><defs><style>.cls-1{fill:#29abe2;}.cls-1,.cls-2,.cls-4{stroke:#ddd;}.cls-1,.cls-12,.cls-2,.cls-4{stroke-miterlimit:10;}.cls-12,.cls-2,.cls-4{fill:none;}.cls-11,.cls-3,.cls-8{fill:#ddd;}.cls-4{stroke-width:2px;}.cls-5{font-size:30px;}.cls-13,.cls-5{fill:#0071bc;}.cls-5,.cls-8{font-family:GillSans-LightItalic, Gill Sans;font-weight:300;}.cls-11,.cls-5,.cls-8{font-style:italic;}.cls-6{letter-spacing:0.08em;}.cls-7{letter-spacing:-0.04em;}.cls-11,.cls-8{font-size:15px;}.cls-9{letter-spacing:-0.02em;}.cls-10{letter-spacing:-0.01em;}.cls-11{font-family:GillSans-BoldItalic, Gill Sans;font-weight:700;}.cls-12{stroke:#0071bc;}</style></defs><rect class="cls-1" x="700.42" y="122.36" width="43.87" height="9"/><rect class="cls-1" x="744.42" y="122.36" width="43.87" height="9"/><rect class="cls-1" x="788.42" y="122.36" width="43.87" height="9"/><rect class="cls-1" x="832.42" y="122.36" width="43.87" height="9"/><path class="cls-2" d="M770.5,385.5c-2.1-20.52,24.92-21.67,29.07-4.15" transform="translate(-48.08 -271.14)"/><path class="cls-3" d="M799.12,379.58l3.43-2.45.09.11-1.88,6c-.3,2.07-.6,4.15-.89,6.22q-.92-3-1.81-6l-2.76-5.69.05-.12Z" transform="translate(-48.08 -271.14)"/><path class="cls-2" d="M816.5,384.5c-2.1-20.52,24.92-21.67,29.07-4.15" transform="translate(-48.08 -271.14)"/><path class="cls-3" d="M845.12,378.58l3.43-2.45.09.11-1.88,6c-.3,2.07-.6,4.15-.89,6.22q-.92-3-1.81-6l-2.76-5.69.05-.12Z" transform="translate(-48.08 -271.14)"/><path class="cls-2" d="M862.5,384.5c-2.1-20.52,24.92-21.67,29.07-4.15" transform="translate(-48.08 -271.14)"/><path class="cls-3" d="M891.12,378.58l3.43-2.45.09.11-1.88,6c-.3,2.07-.6,4.15-.89,6.22q-.92-3-1.81-6l-2.76-5.69.05-.12Z" transform="translate(-48.08 -271.14)"/><path class="cls-2" d="M909.5,384.5c-2.1-20.52,24.92-21.67,29.07-4.15" transform="translate(-48.08 -271.14)"/><path class="cls-3" d="M938.12,378.58l3.43-2.45.09.11-1.88,6c-.3,2.07-.6,4.15-.89,6.22q-.92-3-1.81-6l-2.76-5.69.05-.12Z" transform="translate(-48.08 -271.14)"/><rect class="cls-1" x="524.42" y="122.36" width="43.87" height="9"/><rect class="cls-1" x="568.42" y="122.36" width="43.87" height="9"/><rect class="cls-1" x="612.42" y="122.36" width="43.87" height="9"/><rect class="cls-1" x="656.42" y="122.36" width="43.87" height="9"/><path class="cls-2" d="M594.5,385.5c-2.1-20.52,24.92-21.67,29.07-4.15" transform="translate(-48.08 -271.14)"/><path class="cls-3" d="M623.12,379.58l3.43-2.45.09.11-1.88,6c-.3,2.07-.6,4.15-.89,6.22q-.92-3-1.81-6l-2.76-5.69.05-.12Z" transform="translate(-48.08 -271.14)"/><path class="cls-2" d="M641.5,385.5c-2.1-20.52,24.92-21.67,29.07-4.15" transform="translate(-48.08 -271.14)"/><path class="cls-3" d="M670.12,379.58l3.43-2.45.09.11-1.88,6c-.3,2.07-.6,4.15-.89,6.22q-.92-3-1.81-6l-2.76-5.69.05-.12Z" transform="translate(-48.08 -271.14)"/><path class="cls-2" d="M686.5,384.5c-2.1-20.52,24.92-21.67,29.07-4.15" transform="translate(-48.08 -271.14)"/><path class="cls-3" d="M715.12,378.58l3.43-2.45.09.11-1.88,6c-.3,2.07-.6,4.15-.89,6.22q-.92-3-1.81-6l-2.76-5.69.05-.12Z" transform="translate(-48.08 -271.14)"/><path class="cls-2" d="M729.5,384.5c-2.1-20.52,24.92-21.67,29.07-4.15" transform="translate(-48.08 -271.14)"/><path class="cls-3" d="M758.12,378.58l3.43-2.45.09.11-1.88,6c-.3,2.07-.6,4.15-.89,6.22q-.92-3-1.81-6l-2.76-5.69.05-.12Z" transform="translate(-48.08 -271.14)"/><rect class="cls-1" x="349.42" y="122.36" width="43.87" height="9"/><rect class="cls-1" x="393.42" y="122.36" width="43.87" height="9"/><rect class="cls-1" x="437.42" y="122.36" width="43.87" height="9"/><rect class="cls-1" x="481.42" y="122.36" width="43.87" height="9"/><path class="cls-2" d="M419.5,385.5c-2.1-20.52,24.92-21.67,29.07-4.15" transform="translate(-48.08 -271.14)"/><path class="cls-3" d="M448.12,379.58l3.43-2.45.09.11-1.88,6c-.3,2.07-.6,4.15-.89,6.22q-.92-3-1.81-6l-2.76-5.69.05-.12Z" transform="translate(-48.08 -271.14)"/><path class="cls-2" d="M465.5,385.5c-2.1-20.52,24.92-21.67,29.07-4.15" transform="translate(-48.08 -271.14)"/><path class="cls-3" d="M494.12,379.58l3.43-2.45.09.11-1.88,6c-.3,2.07-.6,4.15-.89,6.22q-.92-3-1.81-6l-2.76-5.69.05-.12Z" transform="translate(-48.08 -271.14)"/><path class="cls-2" d="M509.57,385.67c-2.32-20.5,24.59-21.95,28.92-4.48" transform="translate(-48.08 -271.14)"/><path class="cls-3" d="M538,379.42l3.4-2.49.09.12-1.82,6.05q-.41,3.12-.82,6.23-.93-3-1.87-6l-2.83-5.65.05-.13Z" transform="translate(-48.08 -271.14)"/><path class="cls-2" d="M551.5,386.5c-2.1-20.52,24.92-21.67,29.07-4.15" transform="translate(-48.08 -271.14)"/><path class="cls-3" d="M580.12,380.58l3.43-2.45.09.11-1.88,6c-.3,2.07-.6,4.15-.89,6.22q-.92-3-1.81-6l-2.76-5.69.05-.12Z" transform="translate(-48.08 -271.14)"/><rect class="cls-1" x="174.42" y="122.36" width="43.87" height="9"/><rect class="cls-1" x="218.42" y="122.36" width="43.87" height="9"/><rect class="cls-1" x="262.42" y="122.36" width="43.87" height="9"/><rect class="cls-1" x="306.42" y="122.36" width="43.87" height="9"/><line class="cls-4" x1="174.42" y1="122.36" x2="174.42" y2="181.57"/><line class="cls-4" x1="218.26" y1="122.38" x2="218.26" y2="181.59"/><line class="cls-4" x1="262.11" y1="122.39" x2="262.11" y2="181.61"/><line class="cls-4" x1="305.95" y1="122.41" x2="305.95" y2="181.63"/><line class="cls-4" x1="349.79" y1="122.43" x2="349.79" y2="181.64"/><line class="cls-4" x1="393.64" y1="122.45" x2="393.64" y2="181.66"/><line class="cls-4" x1="437.48" y1="122.46" x2="437.48" y2="181.68"/><line class="cls-4" x1="481.32" y1="122.48" x2="481.32" y2="181.7"/><line class="cls-4" x1="525.17" y1="122.5" x2="525.17" y2="181.72"/><line class="cls-4" x1="569.01" y1="122.52" x2="569.01" y2="181.73"/><line class="cls-4" x1="612.86" y1="122.54" x2="612.86" y2="181.75"/><line class="cls-4" x1="656.7" y1="122.55" x2="656.7" y2="181.77"/><line class="cls-4" x1="700.54" y1="122.57" x2="700.54" y2="181.79"/><line class="cls-4" x1="744.39" y1="122.59" x2="744.39" y2="181.8"/><line class="cls-4" x1="788.23" y1="122.61" x2="788.23" y2="181.82"/><line class="cls-4" x1="832.07" y1="122.62" x2="832.07" y2="181.84"/><line class="cls-4" x1="875.92" y1="122.64" x2="875.92" y2="181.86"/><rect class="cls-4" x="174.42" y="122.36" width="701.5" height="59.5"/><text class="cls-5" transform="translate(129 25.3)">Giant Memo<tspan class="cls-6" x="141.78" y="0">r</tspan><tspan x="152.17" y="0">y Chunk</tspan></text><text class="cls-5" transform="translate(0 135.3)">Small <tspan class="cls-7" x="68.03" y="0">P</tspan><tspan x="80.9" y="0">ointer</tspan></text><text class="cls-8" transform="translate(201 83.07)">points to n<tspan class="cls-9" x="59.41" y="0">e</tspan><tspan x="65.9" y="0">xt </tspan><tspan class="cls-10" x="81.15" y="0">b</tspan><tspan x="88.04" y="0">lock</tspan></text><text class="cls-11" transform="translate(885 136.99)">nullptr</text><path class="cls-12" d="M423,288.14s77.85-13.66,107.39,63.77" transform="translate(-48.08 -271.14)"/><path class="cls-13" d="M529.75,350.25,532.4,347l.12.09-.22,6.32c.27,2.08.53,4.16.8,6.24l-3.34-5.33-4.18-4.75,0-.13Z" transform="translate(-48.08 -271.14)"/><path class="cls-2" d="M244.5,385.5c-2.1-20.52,24.92-21.67,29.07-4.15" transform="translate(-48.08 -271.14)"/><path class="cls-3" d="M273.12,379.58l3.43-2.45.09.11-1.88,6c-.3,2.07-.6,4.15-.89,6.22q-.92-3-1.81-6l-2.76-5.69.05-.12Z" transform="translate(-48.08 -271.14)"/><path class="cls-2" d="M291.5,385.5c-2.1-20.52,24.92-21.67,29.07-4.15" transform="translate(-48.08 -271.14)"/><path class="cls-3" d="M320.12,379.58l3.43-2.45.09.11-1.88,6c-.3,2.07-.6,4.15-.89,6.22q-.92-3-1.81-6l-2.76-5.69.05-.12Z" transform="translate(-48.08 -271.14)"/><path class="cls-2" d="M333.5,384.5c-2.1-20.52,24.92-21.67,29.07-4.15" transform="translate(-48.08 -271.14)"/><path class="cls-3" d="M362.12,378.58l3.43-2.45.09.11-1.88,6c-.3,2.07-.6,4.15-.89,6.22q-.92-3-1.81-6l-2.76-5.69.05-.12Z" transform="translate(-48.08 -271.14)"/><path class="cls-2" d="M378.5,385.5c-2.1-20.52,24.92-21.67,29.07-4.15" transform="translate(-48.08 -271.14)"/><path class="cls-3" d="M407.12,379.58l3.43-2.45.09.11-1.88,6c-.3,2.07-.6,4.15-.89,6.22q-.92-3-1.81-6l-2.76-5.69.05-.12Z" transform="translate(-48.08 -271.14)"/><line class="cls-12" x1="145.92" y1="126.86" x2="162.77" y2="126.86"/><path class="cls-13" d="M209.05,398l-2.19-3.6.12-.08,5.88,2.33L219,398l-6.14,1.35L207,401.68l-.12-.06Z" transform="translate(-48.08 -271.14)"/></svg>