<svg id="Layer_1" data-name="Layer 1" xmlns="http://www.w3.org/2000/svg" viewBox="0 0 737.92 322.36"><defs><style>.cls-1{fill:#29abe2;}.cls-1,.cls-2,.cls-7{stroke:#ddd;}.cls-1,.cls-2,.cls-5,.cls-7{stroke-miterlimit:10;}.cls-2,.cls-5,.cls-7{fill:none;}.cls-2{stroke-width:2px;}.cls-3{font-size:30px;}.cls-10,.cls-3,.cls-6{fill:#0071bc;}.cls-10,.cls-3{font-family:GillSans-LightItalic, Gill Sans;font-weight:300;}.cls-10,.cls-3,.cls-9{font-style:italic;}.cls-4{letter-spacing:0.08em;}.cls-5{stroke:#0071bc;}.cls-8,.cls-9{fill:#ddd;}.cls-10,.cls-9{font-size:15px;}.cls-9{font-family:GillSans-BoldItalic, Gill Sans;font-weight:700;}</style></defs><rect class="cls-1" x="561.42" y="165.36" width="43.87" height="9"/><rect class="cls-1" x="385.42" y="165.36" width="43.87" height="9"/><rect class="cls-1" x="473.42" y="165.36" width="43.87" height="9"/><rect class="cls-1" x="517.42" y="165.36" width="43.87" height="9"/><rect class="cls-1" x="210.42" y="165.36" width="43.87" height="9"/><rect class="cls-1" x="254.42" y="165.36" width="43.87" height="9"/><rect class="cls-1" x="298.42" y="165.36" width="43.87" height="9"/><rect class="cls-1" x="79.42" y="165.36" width="43.87" height="9"/><rect class="cls-1" x="123.42" y="165.36" width="43.87" height="9"/><line class="cls-2" x1="35.42" y1="165.36" x2="35.42" y2="224.57"/><line class="cls-2" x1="79.26" y1="165.38" x2="79.26" y2="224.59"/><line class="cls-2" x1="123.11" y1="165.39" x2="123.11" y2="224.61"/><line class="cls-2" x1="166.95" y1="165.41" x2="166.95" y2="224.63"/><line class="cls-2" x1="210.79" y1="165.43" x2="210.79" y2="224.64"/><line class="cls-2" x1="254.64" y1="165.45" x2="254.64" y2="224.66"/><line class="cls-2" x1="298.48" y1="165.46" x2="298.48" y2="224.68"/><line class="cls-2" x1="342.32" y1="165.48" x2="342.32" y2="224.7"/><line class="cls-2" x1="386.17" y1="165.5" x2="386.17" y2="224.72"/><line class="cls-2" x1="430.01" y1="165.52" x2="430.01" y2="224.73"/><line class="cls-2" x1="473.86" y1="165.54" x2="473.86" y2="224.75"/><line class="cls-2" x1="517.7" y1="165.55" x2="517.7" y2="224.77"/><line class="cls-2" x1="561.54" y1="165.57" x2="561.54" y2="224.79"/><line class="cls-2" x1="605.39" y1="165.59" x2="605.39" y2="224.8"/><line class="cls-2" x1="649.23" y1="165.61" x2="649.23" y2="224.82"/><line class="cls-2" x1="693.07" y1="165.62" x2="693.07" y2="224.84"/><line class="cls-2" x1="736.92" y1="165.64" x2="736.92" y2="224.86"/><rect class="cls-2" x="35.42" y="165.36" width="701.5" height="59.5"/><text class="cls-3" transform="translate(0 25.3)">Giant Memo<tspan class="cls-4" x="141.78" y="0">r</tspan><tspan x="152.17" y="0">y Chunk</tspan></text><path class="cls-5" d="M433,245.14s77.85-13.66,107.39,63.77" transform="translate(-187.08 -228.14)"/><path class="cls-6" d="M539.75,307.25,542.4,304l.12.09-.22,6.32c.27,2.08.53,4.16.8,6.24l-3.34-5.33-4.18-4.75,0-.13Z" transform="translate(-187.08 -228.14)"/><path class="cls-7" d="M287.9,384.57c-10.41-102,140.32-110.56,133.41-4.19" transform="translate(-187.08 -228.14)"/><path class="cls-8" d="M421.41,378.59l3.79-1.85.07.13-2.86,5.64-1.91,6-.78-6.24-1.79-6.06.07-.12Z" transform="translate(-187.08 -228.14)"/><path class="cls-7" d="M462.59,389c-3.92-38.33,50.23-43,52.35-6.61" transform="translate(-187.08 -228.14)"/><path class="cls-8" d="M514.79,380.55l3.64-2.12.08.13-2.45,5.83-1.47,6.11-1.23-6.17-2.22-5.92.07-.12Z" transform="translate(-187.08 -228.14)"/><path class="cls-7" d="M682.59,387c-3.49-38.14,50.89-42.73,52.48-6.6" transform="translate(-187.08 -228.14)"/><path class="cls-8" d="M734.94,378.56l3.68-2.06.08.12-2.54,5.79c-.52,2-1,4.06-1.57,6.09-.38-2.06-.75-4.12-1.13-6.18l-2.13-6,.07-.12Z" transform="translate(-187.08 -228.14)"/><path class="cls-7" d="M771.5,388.5c-1.46-78.73-93.52-79-97-9.16" transform="translate(-187.08 -228.14)"/><path class="cls-8" d="M674.66,377.55l3.64-2.13.08.13L676,381.38c-.48,2-1,4.08-1.45,6.12-.42-2.05-.83-4.11-1.25-6.16L671,375.42l.06-.12Z" transform="translate(-187.08 -228.14)"/><path class="cls-7" d="M725,405.5C723,506.42,598.15,506,595.45,414.93" transform="translate(-187.08 -228.14)"/><path class="cls-8" d="M595.51,416.72l-3.6,2.18-.08-.12,2.34-5.87c.45-2.05.91-4.09,1.36-6.14.45,2.05.89,4.1,1.34,6.14l2.32,5.88-.06.13Z" transform="translate(-187.08 -228.14)"/><path class="cls-7" d="M411.5,387.5C401,333.29,352,332.22,336.6,380.62" transform="translate(-187.08 -228.14)"/><path class="cls-8" d="M337.17,378.92l4.05-1.15,0,.14-3.82,5q-1.49,2.78-2.95,5.55c.11-2.09.23-4.19.34-6.28l-.67-6.28.09-.11Z" transform="translate(-187.08 -228.14)"/><path class="cls-7" d="M335.5,405.5c-1,90.34,129.69,97.54,129.38,8.15" transform="translate(-187.08 -228.14)"/><path class="cls-8" d="M464.87,415.44l-3.52,2.32-.09-.12,2.12-5.95c.37-2.07.75-4.13,1.12-6.19.53,2,1.05,4.06,1.58,6.09l2.55,5.78-.06.13Z" transform="translate(-187.08 -228.14)"/><path class="cls-7" d="M510.51,405.5c-2,185.08,269.77,197.26,260.9,8.13" transform="translate(-187.08 -228.14)"/><path class="cls-8" d="M771.48,415.43,768,417.84l-.09-.12,2-6q.5-3.1,1-6.21c.58,2,1.15,4,1.73,6l2.7,5.72-.06.13Z" transform="translate(-187.08 -228.14)"/><line class="cls-7" x1="405.42" y1="158.36" x2="405.42" y2="110.51"/><path class="cls-8" d="M592.5,340.45l-3.6,2.19-.08-.12,2.33-5.88,1.35-6.14,1.35,6.14,2.33,5.88-.06.12Z" transform="translate(-187.08 -228.14)"/><text class="cls-9" transform="translate(379.65 91.21)">nullptr</text><line class="cls-5" x1="56.42" y1="289.86" x2="56.42" y2="242.01"/><path class="cls-6" d="M243.5,472l-3.6,2.19-.08-.12,2.33-5.88L243.5,462l1.35,6.14,2.33,5.88-.06.12Z" transform="translate(-187.08 -228.14)"/><text class="cls-10" transform="translate(26.65 308.78)">Used Block</text><line class="cls-5" x1="143.42" y1="288.86" x2="143.42" y2="241.01"/><path class="cls-6" d="M330.5,471l-3.6,2.19-.08-.12,2.33-5.88L330.5,461l1.35,6.14,2.33,5.88-.06.12Z" transform="translate(-187.08 -228.14)"/><text class="cls-10" transform="translate(113.65 307.78)">Free Block</text></svg>